<svg width="50" height="50" viewBox="0 0 50 50" fill="none" xmlns="http://www.w3.org/2000/svg">
<path d="M5.00001 8C4.73499 7.99625 4.47186 8.04522 4.22593 8.14404C3.97999 8.24287 3.75615 8.38959 3.56741 8.57568C3.37867 8.76177 3.2288 8.98352 3.1265 9.22803C3.02421 9.47254 2.97153 9.73495 2.97153 10C2.97153 10.2651 3.02421 10.5275 3.1265 10.772C3.2288 11.0165 3.37867 11.2382 3.56741 11.4243C3.75615 11.6104 3.97999 11.7571 4.22593 11.856C4.47186 11.9548 4.73499 12.0037 5.00001 12H45C45.265 12.0037 45.5282 11.9548 45.7741 11.856C46.02 11.7571 46.2439 11.6104 46.4326 11.4243C46.6214 11.2382 46.7712 11.0165 46.8735 10.772C46.9758 10.5275 47.0285 10.2651 47.0285 10C47.0285 9.73495 46.9758 9.47254 46.8735 9.22803C46.7712 8.98352 46.6214 8.76177 46.4326 8.57568C46.2439 8.38959 46.02 8.24287 45.7741 8.14404C45.5282 8.04522 45.265 7.99625 45 8H5.00001ZM5.00001 23C4.73499 22.9963 4.47186 23.0452 4.22593 23.144C3.97999 23.2429 3.75615 23.3896 3.56741 23.5757C3.37867 23.7618 3.2288 23.9835 3.1265 24.228C3.02421 24.4725 2.97153 24.735 2.97153 25C2.97153 25.2651 3.02421 25.5275 3.1265 25.772C3.2288 26.0165 3.37867 26.2382 3.56741 26.4243C3.75615 26.6104 3.97999 26.7571 4.22593 26.856C4.47186 26.9548 4.73499 27.0038 5.00001 27H45C45.265 27.0038 45.5282 26.9548 45.7741 26.856C46.02 26.7571 46.2439 26.6104 46.4326 26.4243C46.6214 26.2382 46.7712 26.0165 46.8735 25.772C46.9758 25.5275 47.0285 25.2651 47.0285 25C47.0285 24.735 46.9758 24.4725 46.8735 24.228C46.7712 23.9835 46.6214 23.7618 46.4326 23.5757C46.2439 23.3896 46.02 23.2429 45.7741 23.144C45.5282 23.0452 45.265 22.9963 45 23H5.00001ZM5.00001 38C4.73499 37.9963 4.47186 38.0452 4.22593 38.144C3.97999 38.2429 3.75615 38.3896 3.56741 38.5757C3.37867 38.7618 3.2288 38.9835 3.1265 39.228C3.02421 39.4725 2.97153 39.7349 2.97153 40C2.97153 40.2651 3.02421 40.5275 3.1265 40.772C3.2288 41.0165 3.37867 41.2382 3.56741 41.4243C3.75615 41.6104 3.97999 41.7571 4.22593 41.856C4.47186 41.9548 4.73499 42.0037 5.00001 42H45C45.265 42.0037 45.5282 41.9548 45.7741 41.856C46.02 41.7571 46.2439 41.6104 46.4326 41.4243C46.6214 41.2382 46.7712 41.0165 46.8735 40.772C46.9758 40.5275 47.0285 40.2651 47.0285 40C47.0285 39.7349 46.9758 39.4725 46.8735 39.228C46.7712 38.9835 46.6214 38.7618 46.4326 38.5757C46.2439 38.3896 46.02 38.2429 45.7741 38.144C45.5282 38.0452 45.265 37.9963 45 38H5.00001Z" fill="white"/>
</svg>
